# xmcd
#
# Track frame offsets: 
#        150
#        24013
#        47264
#        71639
#        89008
#        110277
#        139392
#        156584
#        170044
#        183238
#        200414
#
# Disc length: 2946 seconds
#
# Revision: 0
# Processed by: cddbd v1.5.2PL0 Copyright (c) Steve Scherf et al.
# Submitted via: ExactAudioCopy v0.99pb5
#
DISCID=950b800b
DTITLE=Pazur and Roman Wojciechowski - Cieñ kapelusza
DYEAR=1999
DGENRE=Blues
TTITLE0=Cieñ kapelusza
TTITLE1=Królowa snów
TTITLE2=Cudowe okulary
TTITLE3=Do pani muzyki
TTITLE4=Erotyczne reggae
TTITLE5=90 mil
TTITLE6=Deszczowy blues
TTITLE7=Flaszka wina
TTITLE8=Na-na-ni
TTITLE9=Przytulanka
TTITLE10=Rajstopy
EXTD=
EXTT0=
EXTT1=
EXTT2=
EXTT3=
EXTT4=
EXTT5=
EXTT6=
EXTT7=
EXTT8=
EXTT9=
EXTT10=
PLAYORDER=
